<?xml version="1.0" encoding="UTF-8" standalone="no"?><!DOCTYPE svg PUBLIC "-//W3C//DTD SVG 1.1//EN" "http://www.w3.org/Graphics/SVG/1.1/DTD/svg11.dtd"><svg width="100%" height="100%" viewBox="0 0 284 284" version="1.1" xmlns="http://www.w3.org/2000/svg" xmlns:xlink="http://www.w3.org/1999/xlink" xml:space="preserve" xmlns:serif="http://www.serif.com/" style="fill-rule:evenodd;clip-rule:evenodd;stroke-linejoin:round;stroke-miterlimit:2;"><rect x="0" y="0" width="283.465" height="283.465"/><path d="M283.465,-0l-0,283.465l-283.465,-0l0,-283.465l283.465,-0Zm-3,3l-277.465,0c0,0 0,277.465 -0,277.465c28.375,-0 249.09,-0 277.465,-0l-0,-277.465Z" style="fill:#fff;"/><path d="M141.732,74.982l1.476,-0.051c0,0 0.841,-1.816 2.349,-1.237c1.266,0.487 0.885,2.103 0.885,2.103l2.37,2.898c-0,-0 3.15,-21.01 18.652,-32.5c25.412,-18.837 49.4,-15.631 49.4,-15.631c0,-0 -18.407,-1.114 -41.398,12.997c-22.1,13.564 -22.832,37.147 -22.832,37.147l-1.698,7.49l5.124,9.943l15.646,-7.896l26.267,-26.541l24.557,-12.234l-22.934,15.37l-23.776,26.297l-12.512,8.186l14.263,11.573l8.283,-3.273l18.155,4.209l11.459,0.581l14.928,-0.872l-8.806,3.593l-13.713,1.653l-21.077,-4.495l-4.296,2.982l0.796,28.734l4.837,14.796l-0.406,3.251l13.7,19.912l-11.594,47.433l8.481,19.018l-10.625,-18.876l7.795,-46.469l-9.5,-12.234l-15.609,34.377l-28.647,18.916l-28.646,-18.916l-15.61,-34.377l-9.5,12.234l7.796,46.469l-10.626,18.876l8.482,-19.018l-11.594,-47.433l13.7,-19.912l-0.407,-3.251l4.838,-14.796l0.796,-28.734l-4.297,-2.982l-21.077,4.495l-13.713,-1.653l-8.806,-3.593l14.929,0.872l11.459,-0.581l18.155,-4.209l8.282,3.273l14.264,-11.573l-12.513,-8.186l-23.776,-26.297l-22.934,-15.37l24.558,12.234l26.266,26.541l15.647,7.896l5.124,-9.943l-1.699,-7.49c0,-0 -0.732,-23.583 -22.831,-37.147c-22.992,-14.111 -41.399,-12.997 -41.399,-12.997c0,-0 23.988,-3.206 49.401,15.631c15.502,11.49 18.652,32.5 18.652,32.5l2.37,-2.898c-0,-0 -0.381,-1.616 0.885,-2.103c1.507,-0.579 2.348,1.237 2.348,1.237l1.476,0.051Z" style="fill:#fff;"/><path d="M141.732,193.324l-6.885,-5.964l-21.092,20.298l-0.669,-0.442l-0.832,-1.832l21.492,-20.341l-1.564,-12.802l-31.347,-50.409l0.126,-4.558l33.422,53.345l2.1,15.269l5.249,4.848l5.25,-4.848l2.099,-15.269l33.423,-53.345l0.126,4.558l-31.347,50.409l-1.564,12.802l21.492,20.341l-0.832,1.832l-0.67,0.442l-21.091,-20.298l-6.886,5.964Z"/></svg>